<?xml version="1.0" encoding="UTF-8" standalone="no"?>
<svg
   xmlns:dc="http://purl.org/dc/elements/1.1/"
   xmlns:cc="http://creativecommons.org/ns#"
   xmlns:rdf="http://www.w3.org/1999/02/22-rdf-syntax-ns#"
   xmlns:svg="http://www.w3.org/2000/svg"
   xmlns="http://www.w3.org/2000/svg"
   xmlns:sodipodi="http://sodipodi.sourceforge.net/DTD/sodipodi-0.dtd"
   xmlns:inkscape="http://www.inkscape.org/namespaces/inkscape"
   stroke-miterlimit="1.41421"
   viewBox="0 0 180 180"
   id="svg2"
   version="1.1"
   inkscape:version="0.91 r13725"
   sodipodi:docname="prefix-server-logo.svg"
   width="180"
   height="180"
   style="clip-rule:evenodd;fill-rule:evenodd;stroke-linejoin:round;stroke-miterlimit:1.41420996">
  <metadata
     id="metadata24">
    <rdf:RDF>
      <cc:Work
         rdf:about="">
        <dc:format>image/svg+xml</dc:format>
        <dc:type
           rdf:resource="http://purl.org/dc/dcmitype/StillImage" />
        <dc:title></dc:title>
      </cc:Work>
    </rdf:RDF>
  </metadata>
  <defs
     id="defs22" />
  <sodipodi:namedview
     pagecolor="#ffffff"
     bordercolor="#666666"
     borderopacity="1"
     objecttolerance="10"
     gridtolerance="10"
     guidetolerance="10"
     inkscape:pageopacity="0"
     inkscape:pageshadow="2"
     inkscape:window-width="2152"
     inkscape:window-height="1219"
     id="namedview20"
     showgrid="false"
     inkscape:zoom="3.42"
     inkscape:cx="66.713683"
     inkscape:cy="50.199491"
     inkscape:window-x="0"
     inkscape:window-y="-22"
     inkscape:window-maximized="0"
     inkscape:current-layer="svg2"
     fit-margin-top="0"
     fit-margin-left="0"
     fit-margin-right="0"
     fit-margin-bottom="0" />
  <g
     id="g4175"
     transform="translate(-49.124361,-67.219497)">
    <path
       sodipodi:nodetypes="cccscsscscssscscccssssccccccsscccccscsscccccsccscccssssc"
       inkscape:connector-curvature="0"
       id="path4"
       transform="matrix(0.14637844,0,0,0.14637844,-192.39293,-322.90053)"
       d="m 2137,3767 c 1,-1 42.9296,0.9333 0.9296,-0.067 L 2335,3766 c 6,-2 12,-7 12,-14 0,-7 -5,-13 -12,-14 l -195,0 c -35,0 -63,-29 -63,-64 0,-31 23,-57 53,-62 2,-1 -14,-1 -13,-1 l 223,0 c 7,-1 12,-7 12,-14 0,-8 -7,-14 -15,-14 -80,0 -161,2 -242,2 -16,0 -27,-17 -31,-30 -21,-62 -34,-144 -80,-190 -121,-121 -165,-296 -94,-456 66,-149 211,-240 374,-241 336,-3 529,388 328,654 16,21 25,47 25,74 0,65 -53,119 -118,119 -66,0 -119,-54 -119,-119 0,-66 53,-119 119,-119 19,0 37,5 53,13 175,-233 5,-574 -287,-571 -143,1 -270,80 -329,211 -62,140 -23,293 84,399 56,56 66,131 90,204 l 0,1 227,0 c 35,0 64,28 64,63 0,31 -23,58 -53,63 l -34,0 29,0 -6,0 -199,0 c -7,2 -12,8 -12,14 0,7 5,13 12,14 l 194,0 c 35,0 64,29 64,64 0,31 -23,57 -54,62 -1,1 -37.5971,1 -8.5971,1 l 4.5971,0 -6,0 -188,0 c -6,1 -11,7 -11,14 0,8 14,14 14,14 0,0 0,0 0,49 -35,0 -64,-28 -64,-63 0,-31 23,-58 54,-62 z m 417,-417 c -7,-7 -15,-13 -23,-18 -10,-5 -21,-7 -32,-7 -39,0 -71,32 -71,71 0,39 31,71 71,71 39,0 71,-32 71,-71 0,-17 -6,-33 -16,-46 z" />
    <path
       inkscape:connector-curvature="0"
       id="path4154"
       d="m 156.52727,175.97679 0,-100.605654 11.83712,3.447545 6.24736,5.014612 8.87784,8.462158 5.26095,8.462159 6.24736,11.90971 1.97285,15.35724 -0.98642,11.59629 -4.27452,15.04384 -6.24737,7.83533 -1.64404,1.56707 -7.23379,-4.38779 -8.87784,2.50731 -5.91855,7.2085 z"
       style="fill:#000000;fill-opacity:1;fill-rule:evenodd;stroke:#000000;stroke-width:1.02404976px;stroke-linecap:butt;stroke-linejoin:miter;stroke-opacity:1" />
  </g>
</svg>
